<mxfile host="app.diagrams.net" agent="Mozilla/5.0 (Windows NT 10.0; Win64; x64) AppleWebKit/537.36 (KHTML, like Gecko) Chrome/130.0.0.0 Safari/537.36 Edg/130.0.0.0" version="24.8.4">
  <diagram name="第 1 页" id="E91afPud6aEipAAOpeEf">
    <mxGraphModel dx="1138" dy="1725" grid="1" gridSize="10" guides="1" tooltips="1" connect="1" arrows="1" fold="1" page="1" pageScale="1" pageWidth="827" pageHeight="1169" math="0" shadow="0">
      <root>
        <mxCell id="0" />
        <mxCell id="1" parent="0" />
        <mxCell id="KhxX588vFjaoOeXf9NdP-60" value="" style="rounded=0;whiteSpace=wrap;html=1;fillColor=none;strokeColor=#000000;" vertex="1" parent="1">
          <mxGeometry x="700" y="910" width="380" height="282.2" as="geometry" />
        </mxCell>
        <mxCell id="KhxX588vFjaoOeXf9NdP-65" style="edgeStyle=orthogonalEdgeStyle;rounded=0;orthogonalLoop=1;jettySize=auto;html=1;exitX=0.489;exitY=1;exitDx=0;exitDy=0;exitPerimeter=0;" edge="1" parent="1" source="KhxX588vFjaoOeXf9NdP-59">
          <mxGeometry relative="1" as="geometry">
            <mxPoint x="701" y="1090" as="targetPoint" />
            <Array as="points">
              <mxPoint x="639" y="1090" />
              <mxPoint x="701" y="1090" />
            </Array>
          </mxGeometry>
        </mxCell>
        <mxCell id="KhxX588vFjaoOeXf9NdP-59" value="" style="rounded=0;whiteSpace=wrap;html=1;fillColor=none;dashed=1;dashPattern=12 12;" vertex="1" parent="1">
          <mxGeometry x="170" y="270" width="960" height="590" as="geometry" />
        </mxCell>
        <mxCell id="KhxX588vFjaoOeXf9NdP-1" value="" style="rounded=0;whiteSpace=wrap;html=1;fillColor=none;strokeColor=#000000;fontColor=#000000;" vertex="1" parent="1">
          <mxGeometry x="305" y="84.38" width="690" height="150" as="geometry" />
        </mxCell>
        <mxCell id="KhxX588vFjaoOeXf9NdP-2" value="&lt;p style=&quot;margin-top: 0pt; margin-bottom: 0pt; margin-left: 0in; direction: ltr; unicode-bidi: embed; word-break: normal;&quot;&gt;&lt;font face=&quot;宋体&quot;&gt;&lt;span style=&quot;font-size: 24px;&quot;&gt;卫星遥感数据采集模块&lt;/span&gt;&lt;/font&gt;&lt;/p&gt;" style="rounded=0;whiteSpace=wrap;html=1;" vertex="1" parent="1">
          <mxGeometry x="370" y="94.38" width="160" height="60" as="geometry" />
        </mxCell>
        <mxCell id="KhxX588vFjaoOeXf9NdP-3" value="&lt;p style=&quot;margin-top: 0pt; margin-bottom: 0pt; margin-left: 0in; direction: ltr; unicode-bidi: embed; word-break: normal;&quot;&gt;&lt;font face=&quot;宋体&quot;&gt;&lt;span style=&quot;font-size: 24px;&quot;&gt;现场观测数据采集模块&lt;/span&gt;&lt;/font&gt;&lt;/p&gt;" style="rounded=0;whiteSpace=wrap;html=1;" vertex="1" parent="1">
          <mxGeometry x="550" y="94.38" width="160" height="60" as="geometry" />
        </mxCell>
        <mxCell id="KhxX588vFjaoOeXf9NdP-4" value="&lt;p style=&quot;margin-top: 0pt; margin-bottom: 0pt; margin-left: 0in; direction: ltr; unicode-bidi: embed; word-break: normal;&quot;&gt;&lt;font face=&quot;宋体&quot;&gt;&lt;span style=&quot;font-size: 24px;&quot;&gt;再分析数据采集模块&lt;/span&gt;&lt;/font&gt;&lt;/p&gt;" style="rounded=0;whiteSpace=wrap;html=1;" vertex="1" parent="1">
          <mxGeometry x="730" y="94.38" width="160" height="60" as="geometry" />
        </mxCell>
        <mxCell id="KhxX588vFjaoOeXf9NdP-5" value="&lt;p style=&quot;margin-top: 0pt; margin-bottom: 0pt; margin-left: 0in; direction: ltr; unicode-bidi: embed; word-break: normal;&quot;&gt;&lt;font face=&quot;宋体&quot;&gt;&lt;span style=&quot;font-size: 24px;&quot;&gt;模型驱动场采集模块&lt;/span&gt;&lt;/font&gt;&lt;/p&gt;" style="rounded=0;whiteSpace=wrap;html=1;" vertex="1" parent="1">
          <mxGeometry x="320" y="164.38" width="160" height="60" as="geometry" />
        </mxCell>
        <mxCell id="KhxX588vFjaoOeXf9NdP-6" value="&lt;p style=&quot;margin-top: 0pt; margin-bottom: 0pt; margin-left: 0in; direction: ltr; unicode-bidi: embed; word-break: normal;&quot;&gt;&lt;font face=&quot;宋体&quot;&gt;&lt;span style=&quot;font-size: 24px;&quot;&gt;数据质控模块&lt;/span&gt;&lt;/font&gt;&lt;/p&gt;" style="rounded=0;whiteSpace=wrap;html=1;" vertex="1" parent="1">
          <mxGeometry x="500" y="164.38" width="160" height="60" as="geometry" />
        </mxCell>
        <mxCell id="KhxX588vFjaoOeXf9NdP-7" value="&lt;p style=&quot;margin-top: 0pt; margin-bottom: 0pt; margin-left: 0in; direction: ltr; unicode-bidi: embed; word-break: normal;&quot;&gt;&lt;font face=&quot;宋体&quot;&gt;&lt;span style=&quot;font-size: 24px;&quot;&gt;数据标准化模块&lt;/span&gt;&lt;/font&gt;&lt;/p&gt;" style="rounded=0;whiteSpace=wrap;html=1;" vertex="1" parent="1">
          <mxGeometry x="680" y="164.38" width="145" height="60" as="geometry" />
        </mxCell>
        <mxCell id="KhxX588vFjaoOeXf9NdP-8" value="" style="endArrow=classic;html=1;rounded=0;exitX=0.5;exitY=1;exitDx=0;exitDy=0;entryX=0.5;entryY=0;entryDx=0;entryDy=0;" edge="1" parent="1" source="KhxX588vFjaoOeXf9NdP-1" target="KhxX588vFjaoOeXf9NdP-59">
          <mxGeometry relative="1" as="geometry">
            <mxPoint x="280" y="380" as="sourcePoint" />
            <mxPoint x="420" y="280" as="targetPoint" />
          </mxGeometry>
        </mxCell>
        <mxCell id="KhxX588vFjaoOeXf9NdP-9" value="&lt;font face=&quot;宋体&quot;&gt;&lt;span style=&quot;font-size: 24px;&quot;&gt;多源数据质控与融合&lt;/span&gt;&lt;/font&gt;" style="rounded=0;whiteSpace=wrap;html=1;textDirection=vertical-lr;fillColor=#eeeeee;strokeColor=#36393d;" vertex="1" parent="1">
          <mxGeometry x="305" y="50" width="690" height="34.38" as="geometry" />
        </mxCell>
        <mxCell id="KhxX588vFjaoOeXf9NdP-10" value="" style="rounded=0;whiteSpace=wrap;html=1;fillColor=none;strokeColor=#000000;" vertex="1" parent="1">
          <mxGeometry x="260" y="287.5" width="840" height="282.5" as="geometry" />
        </mxCell>
        <mxCell id="KhxX588vFjaoOeXf9NdP-11" value="&lt;span style=&quot;line-height: 18px; font-family: 宋体;&quot;&gt;&lt;font style=&quot;font-size: 24px;&quot;&gt;集合卡曼滤波同化&lt;/font&gt;&lt;/span&gt;" style="rounded=0;whiteSpace=wrap;html=1;textDirection=vertical-lr;align=center;fillColor=#eeeeee;strokeColor=#36393d;" vertex="1" parent="1">
          <mxGeometry x="200" y="287.5" width="60" height="282.5" as="geometry" />
        </mxCell>
        <mxCell id="KhxX588vFjaoOeXf9NdP-12" value="&lt;span style=&quot;line-height: 18px; font-family: 宋体;&quot;&gt;&lt;font style=&quot;font-size: 24px;&quot;&gt;集合生成模块&lt;/font&gt;&lt;/span&gt;" style="rounded=0;whiteSpace=wrap;html=1;textDirection=vertical-lr;align=center;" vertex="1" parent="1">
          <mxGeometry x="360" y="298.75" width="60" height="255" as="geometry" />
        </mxCell>
        <mxCell id="KhxX588vFjaoOeXf9NdP-13" value="&lt;span style=&quot;line-height: 18px; font-family: 宋体;&quot;&gt;&lt;font style=&quot;font-size: 24px;&quot;&gt;观测算子构建模块&lt;/font&gt;&lt;/span&gt;" style="rounded=0;whiteSpace=wrap;html=1;textDirection=vertical-lr;align=center;" vertex="1" parent="1">
          <mxGeometry x="440" y="297.5" width="60" height="255" as="geometry" />
        </mxCell>
        <mxCell id="KhxX588vFjaoOeXf9NdP-14" value="&lt;span style=&quot;line-height: 18px; font-family: 宋体;&quot;&gt;&lt;font style=&quot;font-size: 24px;&quot;&gt;局地化模块&lt;/font&gt;&lt;/span&gt;" style="rounded=0;whiteSpace=wrap;html=1;textDirection=vertical-lr;align=center;" vertex="1" parent="1">
          <mxGeometry x="520" y="296.88" width="60" height="255" as="geometry" />
        </mxCell>
        <mxCell id="KhxX588vFjaoOeXf9NdP-15" value="&lt;span style=&quot;line-height: 18px; font-family: 宋体;&quot;&gt;&lt;font style=&quot;font-size: 24px;&quot;&gt;模型初始化模块&lt;/font&gt;&lt;/span&gt;" style="rounded=0;whiteSpace=wrap;html=1;textDirection=vertical-lr;align=center;" vertex="1" parent="1">
          <mxGeometry x="600" y="296.25" width="60" height="255" as="geometry" />
        </mxCell>
        <mxCell id="KhxX588vFjaoOeXf9NdP-16" value="&lt;span style=&quot;line-height: 18px; font-family: 宋体;&quot;&gt;&lt;font style=&quot;font-size: 24px;&quot;&gt;背景场生成模块&lt;/font&gt;&lt;/span&gt;" style="rounded=0;whiteSpace=wrap;html=1;textDirection=vertical-lr;align=center;" vertex="1" parent="1">
          <mxGeometry x="280" y="298.75" width="60" height="255" as="geometry" />
        </mxCell>
        <mxCell id="KhxX588vFjaoOeXf9NdP-18" value="&lt;span style=&quot;line-height: 18px; font-family: 宋体;&quot;&gt;&lt;font style=&quot;font-size: 24px;&quot;&gt;人工智能同化&lt;/font&gt;&lt;/span&gt;" style="rounded=0;whiteSpace=wrap;html=1;textDirection=vertical-lr;align=center;fillColor=#eeeeee;strokeColor=#36393d;" vertex="1" parent="1">
          <mxGeometry x="200" y="600" width="60" height="240" as="geometry" />
        </mxCell>
        <mxCell id="KhxX588vFjaoOeXf9NdP-19" value="" style="rounded=0;whiteSpace=wrap;html=1;fillColor=none;strokeColor=#000000;" vertex="1" parent="1">
          <mxGeometry x="260" y="600" width="840" height="240" as="geometry" />
        </mxCell>
        <mxCell id="KhxX588vFjaoOeXf9NdP-20" value="&lt;p style=&quot;margin-top: 0pt; margin-bottom: 0pt; margin-left: 0in; direction: ltr; unicode-bidi: embed; word-break: normal;&quot;&gt;&lt;font face=&quot;宋体&quot;&gt;&lt;span style=&quot;font-size: 24px;&quot;&gt;训练数据集生成模块&lt;/span&gt;&lt;/font&gt;&lt;/p&gt;" style="rounded=0;whiteSpace=wrap;html=1;" vertex="1" parent="1">
          <mxGeometry x="280" y="616.1" width="240" height="50" as="geometry" />
        </mxCell>
        <mxCell id="KhxX588vFjaoOeXf9NdP-22" value="&lt;p style=&quot;margin-top: 0pt; margin-bottom: 0pt; margin-left: 0in; direction: ltr; unicode-bidi: embed; word-break: normal;&quot;&gt;&lt;font face=&quot;宋体&quot;&gt;&lt;span style=&quot;font-size: 24px;&quot;&gt;交叉验证模块&lt;/span&gt;&lt;/font&gt;&lt;/p&gt;" style="rounded=0;whiteSpace=wrap;html=1;" vertex="1" parent="1">
          <mxGeometry x="400" y="770" width="240" height="50" as="geometry" />
        </mxCell>
        <mxCell id="KhxX588vFjaoOeXf9NdP-23" value="&lt;p style=&quot;margin-top: 0pt; margin-bottom: 0pt; margin-left: 0in; direction: ltr; unicode-bidi: embed; word-break: normal;&quot;&gt;&lt;font face=&quot;宋体&quot;&gt;&lt;span style=&quot;font-size: 24px;&quot;&gt;集成学习模块&lt;/span&gt;&lt;/font&gt;&lt;/p&gt;" style="rounded=0;whiteSpace=wrap;html=1;" vertex="1" parent="1">
          <mxGeometry x="280" y="700" width="240" height="50" as="geometry" />
        </mxCell>
        <mxCell id="KhxX588vFjaoOeXf9NdP-25" value="&lt;span style=&quot;line-height: 18px; font-family: 宋体;&quot;&gt;&lt;font style=&quot;font-size: 24px;&quot;&gt;国产GPU加速&lt;/font&gt;&lt;/span&gt;" style="rounded=0;whiteSpace=wrap;html=1;textDirection=vertical-lr;align=center;fillColor=#eeeeee;strokeColor=#36393d;" vertex="1" parent="1">
          <mxGeometry x="1080" y="910" width="60" height="282.2" as="geometry" />
        </mxCell>
        <mxCell id="KhxX588vFjaoOeXf9NdP-27" value="&lt;span style=&quot;line-height: 18px; font-family: 宋体;&quot;&gt;&lt;font style=&quot;font-size: 24px;&quot;&gt;显存管理模块&lt;/font&gt;&lt;/span&gt;" style="rounded=0;whiteSpace=wrap;html=1;textDirection=vertical-lr;align=center;" vertex="1" parent="1">
          <mxGeometry x="932.5" y="941.25" width="60" height="227.51" as="geometry" />
        </mxCell>
        <mxCell id="KhxX588vFjaoOeXf9NdP-28" value="&lt;span style=&quot;line-height: 18px; font-family: 宋体;&quot;&gt;&lt;font style=&quot;font-size: 24px;&quot;&gt;性能监控模块&lt;/font&gt;&lt;/span&gt;" style="rounded=0;whiteSpace=wrap;html=1;textDirection=vertical-lr;align=center;" vertex="1" parent="1">
          <mxGeometry x="1002.5" y="941.25" width="60" height="227.51" as="geometry" />
        </mxCell>
        <mxCell id="KhxX588vFjaoOeXf9NdP-31" value="&lt;span style=&quot;line-height: 18px; font-family: 宋体;&quot;&gt;&lt;font style=&quot;font-size: 24px;&quot;&gt;资源优化模块&lt;/font&gt;&lt;/span&gt;" style="rounded=0;whiteSpace=wrap;html=1;textDirection=vertical-lr;align=center;" vertex="1" parent="1">
          <mxGeometry x="862.5" y="941.25" width="60" height="227.51" as="geometry" />
        </mxCell>
        <mxCell id="KhxX588vFjaoOeXf9NdP-32" value="&lt;span style=&quot;line-height: 18px; font-family: 宋体;&quot;&gt;&lt;font style=&quot;font-size: 24px;&quot;&gt;任务调度模块&lt;/font&gt;&lt;/span&gt;" style="rounded=0;whiteSpace=wrap;html=1;textDirection=vertical-lr;align=center;" vertex="1" parent="1">
          <mxGeometry x="792.5" y="941.25" width="60" height="227.51" as="geometry" />
        </mxCell>
        <mxCell id="KhxX588vFjaoOeXf9NdP-33" value="&lt;span style=&quot;line-height: 18px; font-family: 宋体;&quot;&gt;&lt;font style=&quot;font-size: 24px;&quot;&gt;数据传输模块&lt;/font&gt;&lt;/span&gt;" style="rounded=0;whiteSpace=wrap;html=1;textDirection=vertical-lr;align=center;" vertex="1" parent="1">
          <mxGeometry x="717.5" y="940" width="60" height="227.51" as="geometry" />
        </mxCell>
        <mxCell id="KhxX588vFjaoOeXf9NdP-37" value="" style="rounded=0;whiteSpace=wrap;html=1;fillColor=none;strokeColor=#000000;" vertex="1" parent="1">
          <mxGeometry x="250" y="910" width="320" height="280" as="geometry" />
        </mxCell>
        <mxCell id="KhxX588vFjaoOeXf9NdP-39" value="&lt;span style=&quot;line-height: 18px; font-family: 宋体;&quot;&gt;&lt;font style=&quot;font-size: 24px;&quot;&gt;日志管理模块&lt;/font&gt;&lt;/span&gt;" style="rounded=0;whiteSpace=wrap;html=1;textDirection=vertical-lr;align=center;" vertex="1" parent="1">
          <mxGeometry x="268.75" y="936.24" width="60" height="228.76" as="geometry" />
        </mxCell>
        <mxCell id="KhxX588vFjaoOeXf9NdP-40" value="&lt;span style=&quot;line-height: 18px; font-family: 宋体;&quot;&gt;&lt;font style=&quot;font-size: 24px;&quot;&gt;时间步迭代模块&lt;/font&gt;&lt;/span&gt;" style="rounded=0;whiteSpace=wrap;html=1;textDirection=vertical-lr;align=center;" vertex="1" parent="1">
          <mxGeometry x="343.75" y="937.49" width="60" height="227.51" as="geometry" />
        </mxCell>
        <mxCell id="KhxX588vFjaoOeXf9NdP-41" value="&lt;span style=&quot;line-height: 18px; font-family: 宋体;&quot;&gt;&lt;font style=&quot;font-size: 24px;&quot;&gt;数据输出与传输模块&lt;/font&gt;&lt;/span&gt;" style="rounded=0;whiteSpace=wrap;html=1;textDirection=vertical-lr;align=center;" vertex="1" parent="1">
          <mxGeometry x="413.75" y="937.49" width="60" height="227.51" as="geometry" />
        </mxCell>
        <mxCell id="KhxX588vFjaoOeXf9NdP-42" value="&lt;span style=&quot;line-height: 18px; font-family: 宋体;&quot;&gt;&lt;font style=&quot;font-size: 24px;&quot;&gt;数据输出与管理&lt;/font&gt;&lt;/span&gt;" style="rounded=0;whiteSpace=wrap;html=1;textDirection=vertical-lr;align=center;fillColor=#eeeeee;strokeColor=#36393d;" vertex="1" parent="1">
          <mxGeometry x="190" y="910" width="60" height="280" as="geometry" />
        </mxCell>
        <mxCell id="KhxX588vFjaoOeXf9NdP-43" value="&lt;p style=&quot;margin-top: 0pt; margin-bottom: 0pt; margin-left: 0in; direction: ltr; unicode-bidi: embed; word-break: normal;&quot;&gt;&lt;font face=&quot;宋体&quot;&gt;&lt;span style=&quot;font-size: 24px;&quot;&gt;数据融合模块&lt;/span&gt;&lt;/font&gt;&lt;/p&gt;" style="rounded=0;whiteSpace=wrap;html=1;" vertex="1" parent="1">
          <mxGeometry x="837.5" y="164.38" width="145" height="60" as="geometry" />
        </mxCell>
        <mxCell id="KhxX588vFjaoOeXf9NdP-44" value="&lt;span style=&quot;line-height: 18px; font-family: 宋体;&quot;&gt;&lt;font style=&quot;font-size: 24px;&quot;&gt;同化参数优选模块&lt;/font&gt;&lt;/span&gt;" style="rounded=0;whiteSpace=wrap;html=1;textDirection=vertical-lr;align=center;" vertex="1" parent="1">
          <mxGeometry x="685" y="295" width="60" height="255" as="geometry" />
        </mxCell>
        <mxCell id="KhxX588vFjaoOeXf9NdP-45" value="&lt;span style=&quot;line-height: 18px; font-family: 宋体;&quot;&gt;&lt;font style=&quot;font-size: 24px;&quot;&gt;集合卡曼滤波计算模块&lt;/font&gt;&lt;/span&gt;" style="rounded=0;whiteSpace=wrap;html=1;textDirection=vertical-lr;align=center;" vertex="1" parent="1">
          <mxGeometry x="767" y="295" width="53" height="255" as="geometry" />
        </mxCell>
        <mxCell id="KhxX588vFjaoOeXf9NdP-46" value="&lt;span style=&quot;line-height: 18px; font-family: 宋体;&quot;&gt;&lt;font style=&quot;font-size: 24px;&quot;&gt;同化后处理模块&lt;/font&gt;&lt;/span&gt;" style="rounded=0;whiteSpace=wrap;html=1;textDirection=vertical-lr;align=center;" vertex="1" parent="1">
          <mxGeometry x="850" y="296.25" width="60" height="255" as="geometry" />
        </mxCell>
        <mxCell id="KhxX588vFjaoOeXf9NdP-47" value="&lt;span style=&quot;line-height: 18px; font-family: 宋体;&quot;&gt;&lt;font style=&quot;font-size: 24px;&quot;&gt;同化结果检验模块&lt;/font&gt;&lt;/span&gt;" style="rounded=0;whiteSpace=wrap;html=1;textDirection=vertical-lr;align=center;" vertex="1" parent="1">
          <mxGeometry x="937.5" y="298.75" width="60" height="255" as="geometry" />
        </mxCell>
        <mxCell id="KhxX588vFjaoOeXf9NdP-48" value="&lt;span style=&quot;line-height: 18px; font-family: 宋体;&quot;&gt;&lt;font style=&quot;font-size: 24px;&quot;&gt;同化算法迭代模块&lt;/font&gt;&lt;/span&gt;" style="rounded=0;whiteSpace=wrap;html=1;textDirection=vertical-lr;align=center;" vertex="1" parent="1">
          <mxGeometry x="1025" y="298.75" width="60" height="255" as="geometry" />
        </mxCell>
        <mxCell id="KhxX588vFjaoOeXf9NdP-54" value="&lt;p style=&quot;margin-top: 0pt; margin-bottom: 0pt; margin-left: 0in; direction: ltr; unicode-bidi: embed; word-break: normal;&quot;&gt;&lt;font face=&quot;宋体&quot;&gt;&lt;span style=&quot;font-size: 24px;&quot;&gt;超参数优化模块&lt;/span&gt;&lt;/font&gt;&lt;/p&gt;" style="rounded=0;whiteSpace=wrap;html=1;" vertex="1" parent="1">
          <mxGeometry x="555" y="616.1" width="240" height="50" as="geometry" />
        </mxCell>
        <mxCell id="KhxX588vFjaoOeXf9NdP-55" value="&lt;p style=&quot;margin-top: 0pt; margin-bottom: 0pt; margin-left: 0in; direction: ltr; unicode-bidi: embed; word-break: normal;&quot;&gt;&lt;font face=&quot;宋体&quot;&gt;&lt;span style=&quot;font-size: 24px;&quot;&gt;智能模型优选模块&lt;/span&gt;&lt;/font&gt;&lt;/p&gt;" style="rounded=0;whiteSpace=wrap;html=1;" vertex="1" parent="1">
          <mxGeometry x="827" y="616.1" width="240" height="50" as="geometry" />
        </mxCell>
        <mxCell id="KhxX588vFjaoOeXf9NdP-56" value="&lt;p style=&quot;margin-top: 0pt; margin-bottom: 0pt; margin-left: 0in; direction: ltr; unicode-bidi: embed; word-break: normal;&quot;&gt;&lt;font face=&quot;宋体&quot;&gt;&lt;span style=&quot;font-size: 24px;&quot;&gt;数据-初始场映射模块&lt;/span&gt;&lt;/font&gt;&lt;/p&gt;" style="rounded=0;whiteSpace=wrap;html=1;" vertex="1" parent="1">
          <mxGeometry x="555" y="700" width="240" height="50" as="geometry" />
        </mxCell>
        <mxCell id="KhxX588vFjaoOeXf9NdP-57" value="&lt;p style=&quot;margin-top: 0pt; margin-bottom: 0pt; margin-left: 0in; direction: ltr; unicode-bidi: embed; word-break: normal;&quot;&gt;&lt;font face=&quot;宋体&quot;&gt;&lt;span style=&quot;font-size: 24px;&quot;&gt;初始场智能生成模块&lt;/span&gt;&lt;/font&gt;&lt;/p&gt;" style="rounded=0;whiteSpace=wrap;html=1;" vertex="1" parent="1">
          <mxGeometry x="827" y="700" width="240" height="50" as="geometry" />
        </mxCell>
        <mxCell id="KhxX588vFjaoOeXf9NdP-58" value="&lt;p style=&quot;margin-top: 0pt; margin-bottom: 0pt; margin-left: 0in; direction: ltr; unicode-bidi: embed; word-break: normal;&quot;&gt;&lt;font face=&quot;宋体&quot;&gt;&lt;span style=&quot;font-size: 24px;&quot;&gt;反馈与迭代模块&lt;/span&gt;&lt;/font&gt;&lt;/p&gt;" style="rounded=0;whiteSpace=wrap;html=1;" vertex="1" parent="1">
          <mxGeometry x="690" y="770" width="240" height="50" as="geometry" />
        </mxCell>
        <mxCell id="KhxX588vFjaoOeXf9NdP-63" style="edgeStyle=orthogonalEdgeStyle;rounded=0;orthogonalLoop=1;jettySize=auto;html=1;exitX=0.5;exitY=0;exitDx=0;exitDy=0;entryX=0.75;entryY=1;entryDx=0;entryDy=0;" edge="1" parent="1" source="KhxX588vFjaoOeXf9NdP-60" target="KhxX588vFjaoOeXf9NdP-59">
          <mxGeometry relative="1" as="geometry" />
        </mxCell>
        <mxCell id="KhxX588vFjaoOeXf9NdP-61" value="&lt;span style=&quot;line-height: 18px; font-family: 宋体;&quot;&gt;&lt;font style=&quot;font-size: 24px;&quot;&gt;可视化模块&lt;/font&gt;&lt;/span&gt;" style="rounded=0;whiteSpace=wrap;html=1;textDirection=vertical-lr;align=center;" vertex="1" parent="1">
          <mxGeometry x="491.25" y="937.49" width="60" height="227.51" as="geometry" />
        </mxCell>
        <mxCell id="KhxX588vFjaoOeXf9NdP-62" value="" style="endArrow=classic;html=1;rounded=0;exitX=0.5;exitY=0;exitDx=0;exitDy=0;entryX=0.25;entryY=1;entryDx=0;entryDy=0;" edge="1" parent="1" source="KhxX588vFjaoOeXf9NdP-37" target="KhxX588vFjaoOeXf9NdP-59">
          <mxGeometry width="50" height="50" relative="1" as="geometry">
            <mxPoint x="510" y="810" as="sourcePoint" />
            <mxPoint x="560" y="760" as="targetPoint" />
          </mxGeometry>
        </mxCell>
        <mxCell id="KhxX588vFjaoOeXf9NdP-64" style="edgeStyle=orthogonalEdgeStyle;rounded=0;orthogonalLoop=1;jettySize=auto;html=1;exitX=0.49;exitY=1;exitDx=0;exitDy=0;exitPerimeter=0;" edge="1" parent="1" source="KhxX588vFjaoOeXf9NdP-59">
          <mxGeometry relative="1" as="geometry">
            <mxPoint x="570" y="1090" as="targetPoint" />
            <Array as="points">
              <mxPoint x="640" y="1090" />
              <mxPoint x="569" y="1090" />
            </Array>
          </mxGeometry>
        </mxCell>
      </root>
    </mxGraphModel>
  </diagram>
</mxfile>
